<svg width="12" height="12" viewBox="0 0 12 12" fill="none" xmlns="http://www.w3.org/2000/svg">
<path d="M6.00024 0.999939C4.62174 0.999939 3.50024 2.12144 3.50024 3.49994V4.99994H3.00024C2.73503 4.99994 2.48067 5.1053 2.29314 5.29283C2.1056 5.48037 2.00024 5.73472 2.00024 5.99994V9.99994C2.00024 10.2652 2.1056 10.5195 2.29314 10.707C2.48067 10.8946 2.73503 10.9999 3.00024 10.9999H9.00024C9.26546 10.9999 9.51981 10.8946 9.70735 10.707C9.89489 10.5195 10.0002 10.2652 10.0002 9.99994V5.99994C10.0002 5.73472 9.89489 5.48037 9.70735 5.29283C9.51981 5.1053 9.26546 4.99994 9.00024 4.99994H8.50024V3.49994C8.50024 2.12144 7.37874 0.999939 6.00024 0.999939ZM4.50024 3.49994C4.50024 2.67294 5.17324 1.99994 6.00024 1.99994C6.82724 1.99994 7.50024 2.67294 7.50024 3.49994V4.99994H4.50024V3.49994ZM6.50024 8.86144V9.99994H5.50024V8.86144C5.32544 8.76133 5.18507 8.6106 5.09766 8.42912C5.01024 8.24763 4.97989 8.04391 5.01059 7.84482C5.04129 7.64574 5.1316 7.46063 5.26963 7.3139C5.40765 7.16718 5.5869 7.06573 5.78374 7.02294C5.92996 6.99051 6.0816 6.99135 6.22745 7.02537C6.3733 7.0594 6.50965 7.12576 6.62642 7.21954C6.7432 7.31333 6.83741 7.43214 6.90211 7.56721C6.96682 7.70229 7.00035 7.85017 7.00024 7.99994C6.99996 8.17481 6.95359 8.34652 6.86581 8.49776C6.77803 8.649 6.65194 8.77444 6.50024 8.86144Z" fill="currentColor"/>
</svg>
